<svg xmlns="http://www.w3.org/2000/svg" viewBox="0 0 128 128" role="img" aria-label="Bird icon">
  <defs>
    <linearGradient id="wing" x1="0" y1="0" x2="1" y2="1">
      <stop offset="0%" stop-color="#3b82f6"/>
      <stop offset="100%" stop-color="#1d4ed8"/>
    </linearGradient>
  </defs>
  <circle cx="64" cy="64" r="60" fill="#e0f2fe"/>
  <path fill="url(#wing)" d="M24 74c16-30 46-44 80-46-14 14-21 28-24 44-3 17-22 30-42 30-7 0-12-1-14-4z"/>
  <path fill="#1e3a8a" d="M86 50c8 2 16 6 22 12-11 1-22 6-30 14 2-11 4-18 8-26z"/>
  <circle cx="78" cy="58" r="4" fill="#0f172a"/>
  <path d="M88 60l12 6-12 6" fill="#f59e0b"/>
</svg>
